<?xml version="1.0" encoding="utf-8"?>
<svg width="512px" height="512px" viewBox="0 0 512 512" version="1.1" xmlns:xlink="http://www.w3.org/1999/xlink" xmlns="http://www.w3.org/2000/svg">
  <defs>
    <rect width="512" height="512" id="artboard_1" />
    <clipPath id="clip_1">
      <use xlink:href="#artboard_1" clip-rule="evenodd" />
    </clipPath>
  </defs>
  <g id="Artboard" clip-path="url(#clip_1)">
    <g id="Table" transform="translate(30 30)">
      <path d="M7.999 0L379.001 0Q379.197 0 379.393 0.00963514Q379.59 0.0192703 379.785 0.0385174Q379.98 0.0577644 380.175 0.0865771Q380.369 0.11539 380.562 0.153699Q380.754 0.192007 380.945 0.23972Q381.135 0.287433 381.323 0.344434Q381.511 0.401436 381.696 0.467589Q381.881 0.533742 382.062 0.608888Q382.243 0.684033 382.421 0.76799Q382.599 0.851946 382.772 0.944512Q382.945 1.03708 383.113 1.13803Q383.282 1.23898 383.445 1.34807Q383.608 1.45717 383.766 1.57414Q383.924 1.69112 384.076 1.81569Q384.227 1.94026 384.373 2.07213Q384.518 2.204 384.657 2.34285Q384.796 2.4817 384.928 2.6272Q385.06 2.7727 385.184 2.92449Q385.309 3.07628 385.426 3.234Q385.543 3.39172 385.652 3.55499Q385.761 3.71826 385.862 3.88669Q385.963 4.05512 386.055 4.2283Q386.148 4.40148 386.232 4.57899Q386.316 4.7565 386.391 4.93791Q386.466 5.11933 386.532 5.30422Q386.599 5.4891 386.656 5.67701Q386.713 5.86492 386.76 6.0554Q386.808 6.24588 386.846 6.43847Q386.885 6.63106 386.913 6.8253Q386.942 7.01954 386.962 7.21496Q386.981 7.41038 386.99 7.60651Q387 7.80264 387 7.999L387 379.001Q387 379.197 386.99 379.393Q386.981 379.59 386.962 379.785Q386.942 379.98 386.913 380.175Q386.885 380.369 386.846 380.562Q386.808 380.754 386.76 380.945Q386.713 381.135 386.656 381.323Q386.599 381.511 386.532 381.696Q386.466 381.881 386.391 382.062Q386.316 382.243 386.232 382.421Q386.148 382.599 386.055 382.772Q385.963 382.945 385.862 383.113Q385.761 383.282 385.652 383.445Q385.543 383.608 385.426 383.766Q385.309 383.924 385.184 384.076Q385.06 384.227 384.928 384.373Q384.796 384.518 384.657 384.657Q384.518 384.796 384.373 384.928Q384.227 385.06 384.076 385.184Q383.924 385.309 383.766 385.426Q383.608 385.543 383.445 385.652Q383.282 385.761 383.113 385.862Q382.945 385.963 382.772 386.055Q382.599 386.148 382.421 386.232Q382.243 386.316 382.062 386.391Q381.881 386.466 381.696 386.532Q381.511 386.599 381.323 386.656Q381.135 386.713 380.945 386.76Q380.754 386.808 380.562 386.846Q380.369 386.885 380.175 386.913Q379.98 386.942 379.785 386.962Q379.59 386.981 379.394 386.99Q379.197 387 379.001 387L7.999 387Q7.80264 387 7.60651 386.99Q7.41038 386.981 7.21496 386.962Q7.01954 386.942 6.8253 386.913Q6.63106 386.885 6.43847 386.846Q6.24588 386.808 6.0554 386.76Q5.86492 386.713 5.67701 386.656Q5.4891 386.599 5.30422 386.532Q5.11933 386.466 4.93791 386.391Q4.7565 386.316 4.57899 386.232Q4.40148 386.148 4.2283 386.055Q4.05512 385.963 3.88669 385.862Q3.71826 385.761 3.55499 385.652Q3.39172 385.543 3.234 385.426Q3.07628 385.309 2.92449 385.184Q2.7727 385.06 2.6272 384.928Q2.4817 384.796 2.34285 384.657Q2.204 384.518 2.07213 384.373Q1.94026 384.227 1.81569 384.076Q1.69112 383.924 1.57414 383.766Q1.45717 383.608 1.34807 383.445Q1.23898 383.282 1.13803 383.113Q1.03708 382.945 0.944512 382.772Q0.851946 382.599 0.76799 382.421Q0.684033 382.243 0.608888 382.062Q0.533742 381.881 0.467589 381.696Q0.401436 381.511 0.344434 381.323Q0.287433 381.135 0.23972 380.945Q0.192007 380.754 0.153699 380.562Q0.11539 380.369 0.0865771 380.175Q0.0577644 379.98 0.0385174 379.785Q0.0192703 379.59 0.00963514 379.394Q0 379.197 0 379.001L0 7.999Q0 7.80264 0.00963514 7.60651Q0.0192703 7.41038 0.0385174 7.21496Q0.0577644 7.01954 0.0865771 6.8253Q0.11539 6.63106 0.153699 6.43847Q0.192007 6.24588 0.23972 6.0554Q0.287433 5.86492 0.344434 5.67701Q0.401436 5.4891 0.467589 5.30422Q0.533742 5.11933 0.608888 4.93791Q0.684033 4.7565 0.76799 4.57899Q0.851946 4.40148 0.944512 4.2283Q1.03708 4.05512 1.13803 3.88669Q1.23898 3.71826 1.34807 3.55499Q1.45717 3.39172 1.57414 3.234Q1.69112 3.07628 1.81569 2.92449Q1.94026 2.7727 2.07213 2.6272Q2.204 2.4817 2.34285 2.34285Q2.4817 2.204 2.6272 2.07213Q2.7727 1.94026 2.92449 1.81569Q3.07628 1.69112 3.234 1.57414Q3.39172 1.45717 3.55499 1.34807Q3.71826 1.23898 3.88669 1.13803Q4.05512 1.03708 4.2283 0.944512Q4.40148 0.851946 4.57899 0.76799Q4.7565 0.684033 4.93791 0.608888Q5.11933 0.533742 5.30422 0.467589Q5.4891 0.401436 5.67701 0.344434Q5.86492 0.287433 6.0554 0.23972Q6.24588 0.192007 6.43847 0.153699Q6.63106 0.11539 6.8253 0.0865771Q7.01954 0.0577644 7.21496 0.0385174Q7.41038 0.0192703 7.60651 0.00963514Q7.80264 0 7.999 0Z" id="Rectangle-2" fill="#ECEFF1" fill-rule="evenodd" stroke="#212121" stroke-width="20" stroke-linecap="round" stroke-linejoin="round" />
      <path d="M7.999 0L379.001 0Q379.197 0 379.393 0.00963514Q379.59 0.0192703 379.785 0.0385174Q379.98 0.0577644 380.175 0.0865771Q380.369 0.11539 380.562 0.153699Q380.754 0.192007 380.945 0.23972Q381.135 0.287433 381.323 0.344434Q381.511 0.401436 381.696 0.467589Q381.881 0.533742 382.062 0.608888Q382.243 0.684033 382.421 0.76799Q382.599 0.851946 382.772 0.944512Q382.945 1.03708 383.113 1.13803Q383.282 1.23898 383.445 1.34807Q383.608 1.45717 383.766 1.57414Q383.924 1.69112 384.076 1.81569Q384.227 1.94026 384.373 2.07213Q384.518 2.204 384.657 2.34285Q384.796 2.4817 384.928 2.6272Q385.06 2.7727 385.184 2.92449Q385.309 3.07628 385.426 3.234Q385.543 3.39172 385.652 3.55499Q385.761 3.71826 385.862 3.88669Q385.963 4.05512 386.055 4.2283Q386.148 4.40148 386.232 4.57899Q386.316 4.7565 386.391 4.93791Q386.466 5.11933 386.532 5.30422Q386.599 5.4891 386.656 5.67701Q386.713 5.86492 386.76 6.0554Q386.808 6.24588 386.846 6.43847Q386.885 6.63106 386.913 6.8253Q386.942 7.01954 386.962 7.21496Q386.981 7.41038 386.99 7.60651Q387 7.80264 387 7.999L387 88.751Q387 88.9474 386.99 89.1435Q386.981 89.3396 386.962 89.535Q386.942 89.7305 386.913 89.9247Q386.885 90.1189 386.846 90.3115Q386.808 90.5041 386.76 90.6946Q386.713 90.8851 386.656 91.073Q386.599 91.2609 386.532 91.4458Q386.466 91.6307 386.391 91.8121Q386.316 91.9935 386.232 92.171Q386.148 92.3485 386.055 92.5217Q385.963 92.6949 385.862 92.8633Q385.761 93.0317 385.652 93.195Q385.543 93.3583 385.426 93.516Q385.309 93.6737 385.184 93.8255Q385.06 93.9773 384.928 94.1228Q384.796 94.2683 384.657 94.4071Q384.518 94.546 384.373 94.6779Q384.227 94.8097 384.076 94.9343Q383.924 95.0589 383.766 95.1758Q383.608 95.2928 383.445 95.4019Q383.282 95.511 383.113 95.612Q382.945 95.7129 382.772 95.8055Q382.599 95.898 382.421 95.982Q382.243 96.066 382.062 96.1411Q381.881 96.2162 381.696 96.2824Q381.511 96.3485 381.323 96.4056Q381.135 96.4626 380.945 96.5103Q380.754 96.558 380.562 96.5963Q380.369 96.6346 380.175 96.6634Q379.98 96.6922 379.785 96.7115Q379.59 96.7307 379.394 96.7404Q379.197 96.75 379.001 96.75L7.999 96.75Q7.80264 96.75 7.60651 96.7404Q7.41038 96.7307 7.21496 96.7115Q7.01954 96.6922 6.8253 96.6634Q6.63106 96.6346 6.43847 96.5963Q6.24588 96.558 6.0554 96.5103Q5.86492 96.4626 5.67701 96.4056Q5.4891 96.3485 5.30422 96.2824Q5.11933 96.2162 4.93791 96.1411Q4.7565 96.066 4.57899 95.982Q4.40148 95.898 4.2283 95.8055Q4.05512 95.7129 3.88669 95.612Q3.71826 95.511 3.55499 95.4019Q3.39172 95.2928 3.234 95.1758Q3.07628 95.0589 2.92449 94.9343Q2.7727 94.8097 2.6272 94.6779Q2.4817 94.546 2.34285 94.4071Q2.204 94.2683 2.07213 94.1228Q1.94026 93.9773 1.81569 93.8255Q1.69112 93.6737 1.57414 93.516Q1.45717 93.3583 1.34807 93.195Q1.23898 93.0317 1.13803 92.8633Q1.03708 92.6949 0.944512 92.5217Q0.851946 92.3485 0.76799 92.171Q0.684033 91.9935 0.608888 91.8121Q0.533742 91.6307 0.467589 91.4458Q0.401436 91.2609 0.344434 91.073Q0.287433 90.8851 0.23972 90.6946Q0.192007 90.5041 0.153699 90.3115Q0.11539 90.1189 0.0865771 89.9247Q0.0577644 89.7305 0.0385174 89.535Q0.0192703 89.3396 0.00963514 89.1435Q0 88.9474 0 88.751L0 7.999Q0 7.80264 0.00963514 7.60651Q0.0192703 7.41038 0.0385174 7.21496Q0.0577644 7.01954 0.0865771 6.8253Q0.11539 6.63106 0.153699 6.43847Q0.192007 6.24588 0.23972 6.0554Q0.287433 5.86492 0.344434 5.67701Q0.401436 5.4891 0.467589 5.30422Q0.533742 5.11933 0.608888 4.93791Q0.684033 4.7565 0.76799 4.57899Q0.851946 4.40148 0.944512 4.2283Q1.03708 4.05512 1.13803 3.88669Q1.23898 3.71826 1.34807 3.55499Q1.45717 3.39172 1.57414 3.234Q1.69112 3.07628 1.81569 2.92449Q1.94026 2.7727 2.07213 2.6272Q2.204 2.4817 2.34285 2.34285Q2.4817 2.204 2.6272 2.07213Q2.7727 1.94026 2.92449 1.81569Q3.07628 1.69112 3.234 1.57414Q3.39172 1.45717 3.55499 1.34807Q3.71826 1.23898 3.88669 1.13803Q4.05512 1.03708 4.2283 0.944512Q4.40148 0.851946 4.57899 0.76799Q4.7565 0.684033 4.93791 0.608888Q5.11933 0.533742 5.30422 0.467589Q5.4891 0.401436 5.67701 0.344434Q5.86492 0.287433 6.0554 0.23972Q6.24588 0.192007 6.43847 0.153699Q6.63106 0.11539 6.8253 0.0865771Q7.01954 0.0577644 7.21496 0.0385174Q7.41038 0.0192703 7.60651 0.00963514Q7.80264 0 7.999 0Z" id="Rectangle-3" fill="#607D8B" fill-rule="evenodd" stroke="#212121" stroke-width="20" stroke-linecap="round" stroke-linejoin="round" />
      <path d="M129 0L129 387" id="Line" fill="none" fill-rule="evenodd" stroke="#212121" stroke-width="20" stroke-linecap="square" />
      <path d="M258 0L258 387" id="Line-2" fill="none" fill-rule="evenodd" stroke="#212121" stroke-width="20" stroke-linecap="square" />
      <path d="M0 193.5L387 193.5" id="Line-3" fill="none" fill-rule="evenodd" stroke="#212121" stroke-width="20" stroke-linecap="square" />
      <path d="M0 290.25L387 290.25" id="Line-5" fill="none" fill-rule="evenodd" stroke="#212121" stroke-width="20" stroke-linecap="square" />
    </g>
    <g id="Pencil" transform="matrix(0.70710725 0.70710635 -0.70710635 0.70710725 418.5095 189.55916)">
      <path d="M13.999 0L86.001 0Q86.3447 0 86.6879 0.0168624Q87.0312 0.0337248 87.3732 0.067409Q87.7152 0.101093 88.0551 0.151518Q88.395 0.201943 88.7321 0.268987Q89.0691 0.336031 89.4025 0.419532Q89.7358 0.503034 90.0647 0.602792Q90.3936 0.70255 90.7171 0.818324Q91.0407 0.934099 91.3582 1.06561Q91.6757 1.19712 91.9864 1.34405Q92.297 1.49099 92.6001 1.65298Q92.9032 1.81498 93.1979 1.99166Q93.4927 2.16833 93.7784 2.35926Q94.0642 2.55018 94.3402 2.7549Q94.6162 2.95961 94.8819 3.17763Q95.1475 3.39564 95.4022 3.62642Q95.6568 3.85721 95.8998 4.10021Q96.1428 4.34321 96.3736 4.59785Q96.6044 4.85248 96.8224 5.11813Q97.0404 5.38378 97.2451 5.6598Q97.4498 5.93583 97.6407 6.22157Q97.8317 6.50731 98.0083 6.80207Q98.185 7.09684 98.347 7.39992Q98.509 7.70299 98.656 8.01365Q98.8029 8.32432 98.9344 8.64181Q99.0659 8.95931 99.1817 9.28288Q99.2975 9.60644 99.3972 9.9353Q99.497 10.2642 99.5805 10.5975Q99.664 10.9309 99.731 11.2679Q99.7981 11.605 99.8485 11.9449Q99.8989 12.2849 99.9326 12.6269Q99.9663 12.9689 99.9832 13.3121Q100 13.6553 100 13.999L100 80.001Q100 80.3447 99.9832 80.6879Q99.9663 81.0311 99.9326 81.3731Q99.8989 81.7151 99.8485 82.0551Q99.7981 82.395 99.731 82.7321Q99.664 83.0691 99.5805 83.4025Q99.497 83.7358 99.3972 84.0647Q99.2975 84.3935 99.1817 84.7171Q99.0659 85.0407 98.9344 85.3582Q98.8029 85.6757 98.656 85.9863Q98.509 86.297 98.347 86.6001Q98.185 86.9032 98.0083 87.1979Q97.8317 87.4927 97.6407 87.7784Q97.4498 88.0642 97.2451 88.3402Q97.0404 88.6162 96.8224 88.8819Q96.6044 89.1475 96.3736 89.4021Q96.1428 89.6568 95.8998 89.8998Q95.6568 90.1428 95.4022 90.3736Q95.1475 90.6043 94.8819 90.8224Q94.6162 91.0404 94.3402 91.2451Q94.0642 91.4498 93.7784 91.6407Q93.4927 91.8316 93.1979 92.0083Q92.9032 92.185 92.6001 92.347Q92.297 92.509 91.9864 92.6559Q91.6757 92.8029 91.3582 92.9344Q91.0407 93.0659 90.7171 93.1817Q90.3936 93.2974 90.0647 93.3972Q89.7358 93.4969 89.4025 93.5804Q89.0691 93.664 88.7321 93.731Q88.395 93.798 88.0551 93.8485Q87.7152 93.8989 87.3732 93.9326Q87.0312 93.9663 86.6879 93.9831Q86.3447 94 86.001 94L13.999 94Q13.6554 94 13.3121 93.9831Q12.9689 93.9663 12.6269 93.9326Q12.2849 93.8989 11.9449 93.8485Q11.605 93.798 11.268 93.731Q10.9309 93.664 10.5975 93.5804Q10.2642 93.4969 9.93533 93.3972Q9.60647 93.2974 9.28291 93.1816Q8.95934 93.0659 8.64184 92.9344Q8.32435 92.8029 8.01369 92.6559Q7.70302 92.509 7.39995 92.347Q7.09687 92.185 6.8021 92.0083Q6.50734 91.8316 6.2216 91.6407Q5.93586 91.4498 5.65983 91.2451Q5.38381 91.0404 5.11816 90.8224Q4.85251 90.6044 4.59788 90.3736Q4.34324 90.1428 4.10024 89.8998Q3.85724 89.6568 3.62645 89.4021Q3.39567 89.1475 3.17766 88.8819Q2.95964 88.6162 2.75493 88.3402Q2.55021 88.0641 2.35929 87.7784Q2.16836 87.4927 1.99169 87.1979Q1.81501 86.9031 1.65301 86.6001Q1.49102 86.297 1.34408 85.9863Q1.19715 85.6757 1.06564 85.3582Q0.934129 85.0407 0.818355 84.7171Q0.702581 84.3935 0.602823 84.0647Q0.503064 83.7358 0.419563 83.4025Q0.336061 83.0691 0.269017 82.7321Q0.201973 82.395 0.151549 82.0551Q0.101124 81.7151 0.0674395 81.3731Q0.0337553 81.0311 0.0168929 80.6879Q3.05176e-05 80.3447 3.05176e-05 80.001L3.05176e-05 13.999Q3.05176e-05 13.6553 0.0168929 13.3121Q0.0337553 12.9689 0.0674395 12.6269Q0.101124 12.2849 0.151548 11.9449Q0.201973 11.605 0.269017 11.2679Q0.336061 10.9309 0.419563 10.5975Q0.503064 10.2642 0.602823 9.9353Q0.702581 9.60644 0.818355 9.28288Q0.934129 8.95931 1.06564 8.64181Q1.19715 8.32432 1.34408 8.01365Q1.49102 7.70299 1.65301 7.39992Q1.81501 7.09684 1.99169 6.80207Q2.16836 6.50731 2.35929 6.22157Q2.55021 5.93583 2.75493 5.6598Q2.95964 5.38378 3.17766 5.11813Q3.39567 4.85248 3.62645 4.59785Q3.85724 4.34321 4.10024 4.10021Q4.34324 3.85721 4.59788 3.62642Q4.85251 3.39564 5.11816 3.17763Q5.38381 2.95961 5.65983 2.7549Q5.93586 2.55018 6.2216 2.35926Q6.50734 2.16833 6.8021 1.99166Q7.09687 1.81498 7.39995 1.65298Q7.70302 1.49099 8.01369 1.34405Q8.32435 1.19712 8.64184 1.06561Q8.95934 0.934099 9.28291 0.818324Q9.60647 0.70255 9.93533 0.602792Q10.2642 0.503034 10.5975 0.419532Q10.9309 0.336031 11.268 0.268987Q11.605 0.201943 11.9449 0.151518Q12.2849 0.101093 12.6269 0.067409Q12.9689 0.0337248 13.3121 0.0168624Q13.6554 0 13.999 0L13.999 0Z" id="Rectangle-3" fill="#FFB74D" fill-rule="evenodd" stroke="#212121" stroke-width="20" />
      <path d="M7.999 73L92.001 73Q92.1974 73 92.3935 73.0097Q92.5896 73.0193 92.785 73.0385Q92.9805 73.0578 93.1747 73.0866Q93.3689 73.1154 93.5615 73.1537Q93.7541 73.192 93.9446 73.2397Q94.1351 73.2874 94.323 73.3444Q94.5109 73.4014 94.6958 73.4676Q94.8807 73.5338 95.0621 73.6089Q95.2435 73.684 95.421 73.768Q95.5985 73.852 95.7717 73.9445Q95.9449 74.0371 96.1133 74.138Q96.2817 74.239 96.445 74.3481Q96.6083 74.4572 96.766 74.5742Q96.9237 74.6911 97.0755 74.8157Q97.2273 74.9403 97.3728 75.0721Q97.5183 75.204 97.6571 75.3429Q97.796 75.4817 97.9278 75.6272Q98.0597 75.7727 98.1843 75.9245Q98.3089 76.0763 98.4258 76.234Q98.5428 76.3917 98.6519 76.555Q98.761 76.7183 98.862 76.8867Q98.9629 77.0551 99.0555 77.2283Q99.148 77.4015 99.232 77.579Q99.3159 77.7565 99.3911 77.9379Q99.4662 78.1193 99.5324 78.3042Q99.5985 78.4891 99.6555 78.677Q99.7125 78.8649 99.7603 79.0554Q99.808 79.2459 99.8463 79.4385Q99.8846 79.6311 99.9134 79.8253Q99.9422 80.0196 99.9615 80.215Q99.9807 80.4104 99.9903 80.6065Q100 80.8027 100 80.999L100 257.001Q100 257.197 99.9903 257.393Q99.9807 257.59 99.9615 257.785Q99.9422 257.98 99.9134 258.175Q99.8846 258.369 99.8463 258.562Q99.808 258.754 99.7603 258.945Q99.7125 259.135 99.6555 259.323Q99.5985 259.511 99.5324 259.696Q99.4662 259.881 99.3911 260.062Q99.3159 260.243 99.232 260.421Q99.148 260.599 99.0555 260.772Q98.9629 260.945 98.862 261.113Q98.761 261.282 98.6519 261.445Q98.5428 261.608 98.4258 261.766Q98.3089 261.924 98.1843 262.076Q98.0597 262.227 97.9278 262.373Q97.796 262.518 97.6571 262.657Q97.5183 262.796 97.3728 262.928Q97.2273 263.06 97.0755 263.184Q96.9237 263.309 96.766 263.426Q96.6082 263.543 96.445 263.652Q96.2817 263.761 96.1133 263.862Q95.9449 263.963 95.7717 264.055Q95.5985 264.148 95.421 264.232Q95.2435 264.316 95.0621 264.391Q94.8806 264.466 94.6958 264.532Q94.5109 264.599 94.323 264.656Q94.1351 264.713 93.9446 264.76Q93.7541 264.808 93.5615 264.846Q93.3689 264.885 93.1747 264.913Q92.9805 264.942 92.785 264.961Q92.5896 264.981 92.3935 264.99Q92.1974 265 92.001 265L7.999 265Q7.80263 265 7.60651 264.99Q7.41038 264.981 7.21496 264.961Q7.01954 264.942 6.8253 264.913Q6.63106 264.885 6.43847 264.846Q6.24588 264.808 6.0554 264.76Q5.86492 264.713 5.67701 264.656Q5.4891 264.599 5.30422 264.532Q5.11933 264.466 4.93791 264.391Q4.7565 264.316 4.57899 264.232Q4.40147 264.148 4.2283 264.055Q4.05512 263.963 3.88669 263.862Q3.71826 263.761 3.55499 263.652Q3.39172 263.543 3.234 263.426Q3.07628 263.309 2.92449 263.184Q2.7727 263.06 2.6272 262.928Q2.4817 262.796 2.34285 262.657Q2.204 262.518 2.07213 262.373Q1.94026 262.227 1.81569 262.076Q1.69112 261.924 1.57414 261.766Q1.45717 261.608 1.34807 261.445Q1.23898 261.282 1.13803 261.113Q1.03708 260.945 0.944512 260.772Q0.851946 260.599 0.767989 260.421Q0.684033 260.243 0.608887 260.062Q0.533742 259.881 0.467589 259.696Q0.401436 259.511 0.344434 259.323Q0.287433 259.135 0.23972 258.945Q0.192007 258.754 0.153698 258.562Q0.11539 258.369 0.0865771 258.175Q0.0577644 257.98 0.0385174 257.785Q0.0192703 257.59 0.00963514 257.393Q0 257.197 0 257.001L0 80.999Q0 80.8027 0.00963514 80.6065Q0.0192703 80.4104 0.0385174 80.215Q0.0577644 80.0195 0.0865771 79.8253Q0.11539 79.6311 0.153698 79.4385Q0.192007 79.2459 0.23972 79.0554Q0.287433 78.8649 0.344434 78.677Q0.401436 78.4891 0.467589 78.3042Q0.533742 78.1193 0.608887 77.9379Q0.684033 77.7565 0.767989 77.579Q0.851946 77.4015 0.944512 77.2283Q1.03708 77.0551 1.13803 76.8867Q1.23898 76.7183 1.34807 76.555Q1.45717 76.3917 1.57414 76.234Q1.69112 76.0763 1.81569 75.9245Q1.94026 75.7727 2.07213 75.6272Q2.204 75.4817 2.34285 75.3429Q2.4817 75.204 2.6272 75.0721Q2.7727 74.9403 2.92449 74.8157Q3.07628 74.6911 3.234 74.5741Q3.39172 74.4572 3.55499 74.3481Q3.71826 74.239 3.88669 74.138Q4.05512 74.0371 4.2283 73.9445Q4.40147 73.852 4.57899 73.768Q4.7565 73.684 4.93791 73.6089Q5.11933 73.5338 5.30422 73.4676Q5.4891 73.4014 5.67701 73.3445Q5.86492 73.2874 6.0554 73.2397Q6.24588 73.192 6.43847 73.1537Q6.63106 73.1154 6.8253 73.0866Q7.01954 73.0578 7.21496 73.0385Q7.41038 73.0193 7.60651 73.0097Q7.80263 73 7.999 73Z" id="Rectangle-2" fill="#FB8C00" fill-rule="evenodd" stroke="#212121" stroke-width="20" />
      <path d="M50 356L98 263L2 263L50 356Z" id="Triangle" fill="#FFE0B2" fill-rule="evenodd" stroke="#212121" stroke-width="20" stroke-linecap="round" stroke-linejoin="round" />
      <path d="M50 356L73 312L27 312L50 356Z" id="Triangle-2" fill="#212121" fill-rule="evenodd" stroke="#212121" stroke-width="20" stroke-linecap="round" stroke-linejoin="round" />
      <path d="M30 73L30 263" id="Line" fill="none" fill-rule="evenodd" stroke="#212121" stroke-width="20" stroke-linecap="square" />
      <path d="M70 73L70 263" id="Line-2" fill="none" fill-rule="evenodd" stroke="#212121" stroke-width="20" stroke-linecap="square" />
    </g>
  </g>
</svg>